<svg width="34" height="49" viewBox="0 0 34 49" fill="none" xmlns="http://www.w3.org/2000/svg">
<path d="M17 4.89072e-06C14.7671 -0.00169687 12.5557 0.440723 10.4924 1.30196C8.42909 2.16319 6.55436 3.42634 4.97543 5.01914C3.39649 6.61194 2.14435 8.50315 1.29062 10.5846C0.436885 12.666 -0.00168209 14.8968 4.84812e-06 17.1494C4.84812e-06 30.0108 17 49 17 49C17 49 34 30.0195 34 17.1494C34.0017 14.8968 33.5631 12.666 32.7094 10.5846C31.8556 8.50315 30.6035 6.61194 29.0246 5.01914C27.4456 3.42634 25.5709 2.16319 23.5076 1.30196C21.4443 0.440723 19.2329 -0.00169687 17 4.89072e-06ZM17 23.2749C15.799 23.2749 14.625 22.9156 13.6265 22.2426C12.6279 21.5695 11.8496 20.6128 11.39 19.4935C10.9304 18.3742 10.8102 17.1426 11.0445 15.9543C11.2788 14.7661 11.8571 13.6746 12.7063 12.8179C13.5555 11.9613 14.6375 11.3779 15.8154 11.1415C16.9933 10.9052 18.2142 11.0265 19.3237 11.4901C20.4333 11.9537 21.3816 12.7389 22.0488 13.7462C22.7161 14.7535 23.0722 15.9378 23.0722 17.1494C23.0716 18.7738 22.4317 20.3315 21.2931 21.4801C20.1544 22.6288 18.6103 23.2743 17 23.2749Z" fill="black"/>
</svg>
