<svg width="37" height="37" viewBox="0 0 37 37" fill="none" xmlns="http://www.w3.org/2000/svg">
<path d="M35.9301 28.9771C33.957 27.2617 31.7754 25.8021 29.437 24.633C27.4907 23.698 26.7789 23.7171 25.4007 24.7097C24.255 25.5392 23.5119 26.3088 22.1937 26.0211C19.7327 24.9046 17.5361 23.2795 15.7485 21.2526C13.719 19.4673 12.0937 17.2695 10.9811 14.8059C10.7007 13.4753 11.4605 12.7441 12.2922 11.5981C13.2845 10.2196 13.3133 9.50759 12.3689 7.56088C11.2059 5.21855 9.74616 3.03573 8.02581 1.06625C6.60926 -0.350629 6.29288 -0.0413616 5.5115 0.23674C4.70892 0.573451 3.93873 0.98271 3.21051 1.45943C2.02154 2.13992 1.06009 3.15664 0.44693 4.38189C-0.101951 5.56622 -0.737119 7.77425 2.49864 13.5353C4.88548 17.9505 7.91008 21.9897 11.4749 25.5224C15.0088 29.0858 19.0466 32.1108 23.4592 34.5008C29.2117 37.7373 31.424 37.102 32.6104 36.553C33.8402 35.9493 34.8599 34.9895 35.537 33.7983C36.0136 33.0699 36.4228 32.2996 36.7594 31.4968C37.0398 30.7128 37.3562 30.394 35.9301 28.9771Z" fill="black"/>
</svg>
