<svg width="53" height="39" viewBox="0 0 53 39" fill="none" xmlns="http://www.w3.org/2000/svg">
<path d="M33.4796 0C22.8573 0 14.1815 8.6757 14.1815 19.3537C14.1815 30.0317 22.8572 38.7074 33.5352 38.7074C44.2132 38.7074 52.8333 30.0317 52.8333 19.3537C52.8333 8.6757 44.1576 0 33.4796 0ZM47.1051 21.0778H49.3295C48.9958 24.192 47.7723 27.0287 45.8815 29.3644L44.3243 27.8072C43.657 27.1399 42.6003 27.1399 41.9331 27.8072C41.2658 28.4744 41.2658 29.5311 41.9331 30.1984L43.4903 31.7556C41.1545 33.6464 38.3184 34.8699 35.2037 35.2035V32.9792C35.2037 32.0338 34.4251 31.2552 33.4797 31.2552C32.5343 31.2552 31.7558 32.0338 31.7558 32.9792V35.2035C28.6415 34.8699 25.8049 33.6464 23.4692 31.7556L25.0264 30.1984C25.6936 29.5311 25.6936 28.4744 25.0264 27.8072C24.3591 27.1399 23.3024 27.1399 22.6352 27.8072L21.078 29.3644C19.1872 27.0286 17.9637 24.1924 17.63 21.0778H19.8544C20.7997 21.0778 21.5783 20.2992 21.5783 19.3538C21.5783 18.4085 20.7997 17.6299 19.8544 17.6299H17.63C17.9636 14.5156 19.1872 11.679 21.078 9.34327L22.6352 10.9005C22.9688 11.2341 23.4137 11.4009 23.8587 11.4009C24.3036 11.4009 24.7486 11.2341 25.0822 10.9005C25.7494 10.2332 25.7494 9.17653 25.0822 8.50926L23.525 6.95206C25.8608 5.06128 28.6969 3.83777 31.8116 3.50409V5.72845C31.8116 6.67384 32.5902 7.45239 33.5355 7.45239C34.4809 7.45239 35.2595 6.67381 35.2595 5.72845V3.50409C38.3738 3.83771 41.2104 5.06128 43.5461 6.95206L41.9889 8.50926C41.3216 9.17651 41.3216 10.2332 41.9889 10.9005C42.3225 11.2341 42.7675 11.4009 43.2124 11.4009C43.6573 11.4009 44.1023 11.2341 44.4359 10.9005L45.9931 9.34327C47.8839 11.6791 49.1074 14.5152 49.4411 17.6299H47.2167C46.2713 17.6299 45.4928 18.4085 45.4928 19.3538C45.3811 20.2992 46.1596 21.0778 47.105 21.0778H47.1051Z" fill="black"/>
<path d="M40.2646 17.6294H35.2036V11.4007C35.2036 10.4553 34.425 9.67676 33.4797 9.67676C32.5343 9.67676 31.7557 10.4553 31.7557 11.4007V19.3533C31.7557 20.2987 32.5343 21.0773 33.4797 21.0773H40.2646C41.21 21.0773 41.9885 20.2987 41.9885 19.3533C41.9885 18.408 41.21 17.6294 40.2646 17.6294Z" fill="black"/>
<path d="M9.12062 21.0778C10.066 21.0778 10.8446 20.2992 10.8446 19.3538C10.8446 18.4085 10.066 17.6299 9.12062 17.6299H1.72394C0.778548 17.6299 0 18.4085 0 19.3538C0 20.2992 0.778578 21.0778 1.72394 21.0778H9.12062Z" fill="black"/>
<path d="M10.6222 10.3438H3.16998C2.22459 10.3438 1.44604 11.1223 1.44604 12.0677C1.44604 13.0131 2.22462 13.7916 3.16998 13.7916H10.6222C11.5676 13.7916 12.3461 13.0131 12.3461 12.0677C12.2906 11.1223 11.5675 10.3438 10.6222 10.3438Z" fill="black"/>
<path d="M10.6222 24.9707H3.16998C2.22459 24.9707 1.44604 25.7493 1.44604 26.6946C1.44604 27.64 2.22462 28.4186 3.16998 28.4186H10.6222C11.5676 28.4186 12.3461 27.64 12.3461 26.6946C12.3461 25.7493 11.5675 24.9707 10.6222 24.9707Z" fill="black"/>
</svg>
