<svg width="40" height="28" viewBox="0 0 40 28" fill="none" xmlns="http://www.w3.org/2000/svg">
<mask id="mask0_74_14" style="mask-type:luminance" maskUnits="userSpaceOnUse" x="0" y="0" width="40" height="28">
<path d="M0 0H40V27.524H0V0Z" fill="white"/>
</mask>
<g mask="url(#mask0_74_14)">
<path d="M39.9999 6.96967V22.4196L29.6539 13.1777L39.9999 6.96967ZM16.7839 14.1257C17.7546 14.7099 18.866 15.0186 19.9989 15.0186C21.1318 15.0186 22.2433 14.7099 23.2139 14.1257L39.9079 4.10962C39.6968 2.96124 39.0905 1.92301 38.194 1.17487C37.2976 0.426725 36.1676 0.015914 34.9999 0.0136719H4.99994C3.83232 0.015914 2.7023 0.426725 1.80585 1.17487C0.909394 1.92301 0.303053 2.96124 0.0919495 4.10962L16.7839 14.1257ZM27.4079 14.5256L24.502 16.2697C23.1432 17.0868 21.5875 17.5185 20.002 17.5185C18.4164 17.5185 16.8608 17.0868 15.502 16.2697L12.5959 14.5256L0.749939 25.1077C1.19359 25.839 1.81792 26.4439 2.56293 26.8642C3.30793 27.2845 4.14855 27.5061 5.00394 27.5076H35.0039C35.8593 27.5061 36.6999 27.2845 37.4449 26.8642C38.1899 26.4439 38.8143 25.839 39.2579 25.1077L27.4079 14.5256ZM0.00793457 6.97162V22.4236L10.3539 13.1796L0.00793457 6.97162Z" fill="black"/>
</g>
</svg>
