<svg width="48" height="38" viewBox="0 0 48 38" fill="none" xmlns="http://www.w3.org/2000/svg">
<path d="M11.1 0L17.983 7.445L13.127 17.017L23.381 15.18L28.05 26.445L47.88 0.445L11.1 0ZM9.83099 16.135L11.74 14.565L9.27899 15.345L9.02799 14.986L10.045 13.998L8.70999 14.535C6.56666 15.3595 4.66725 16.7138 3.18913 18.4713C1.711 20.2288 0.70239 22.3322 0.257474 24.5852C-0.187441 26.8381 -0.0541446 29.1671 0.644916 31.3545C1.34398 33.542 2.586 35.5166 4.25499 37.094C3.09465 35.0544 2.48629 32.7475 2.48999 30.401C2.50277 27.6551 3.32692 24.9743 4.85884 22.6954C6.39077 20.4166 8.56212 18.6414 11.1 17.593L11.728 16.065L10.228 16.725L9.80699 16.156L9.83099 16.135ZM18.537 12.205L21.725 6.577L40.474 2.186L18.537 12.205Z" fill="black"/>
</svg>
