<svg width="80" height="58" viewBox="0 0 80 58" fill="none" xmlns="http://www.w3.org/2000/svg">
<path d="M50.1665 0C34.2499 0 21.2499 12.9999 21.2499 29C21.2499 45.0001 34.2497 58 50.2499 58C66.2499 58 79.1666 45.0001 79.1666 29C79.1666 12.9999 66.1667 0 50.1665 0ZM70.5832 31.5833H73.9163C73.4163 36.2498 71.5829 40.5003 68.7497 44.0001L66.4164 41.6668C65.4166 40.667 63.8332 40.667 62.8334 41.6668C61.8335 42.6666 61.8335 44.25 62.8334 45.2499L65.1667 47.5832C61.6667 50.4164 57.417 52.2497 52.7499 52.7497V49.4167C52.7499 48.0001 51.5832 46.8335 50.1667 46.8335C48.7501 46.8335 47.5835 48.0001 47.5835 49.4167V52.7497C42.917 52.2498 38.6665 50.4164 35.1667 47.5832L37.5 45.2499C38.4999 44.25 38.4999 42.6667 37.5 41.6668C36.5002 40.667 34.9168 40.667 33.917 41.6668L31.5837 44.0001C28.7505 40.5001 26.9171 36.2504 26.4171 31.5833H29.7502C31.1668 31.5833 32.3334 30.4167 32.3334 29.0002C32.3334 27.5836 31.1667 26.417 29.7502 26.417H26.4171C26.917 21.7504 28.7505 17.5 31.5837 14.0001L33.917 16.3335C34.4169 16.8334 35.0836 17.0833 35.7503 17.0833C36.4171 17.0833 37.0838 16.8334 37.5837 16.3335C38.5835 15.3337 38.5835 13.7503 37.5837 12.7504L35.2503 10.4171C38.7503 7.58393 43 5.75059 47.6671 5.25059V8.58363C47.6671 10.0002 48.8338 11.1668 50.2503 11.1668C51.6669 11.1668 52.8335 10.0002 52.8335 8.58363V5.25059C57.5 5.75051 61.7505 7.58393 65.2503 10.4171L62.917 12.7504C61.9172 13.7503 61.9172 15.3336 62.917 16.3335C63.4169 16.8334 64.0836 17.0833 64.7503 17.0833C65.417 17.0833 66.0838 16.8334 66.5837 16.3335L68.917 14.0001C71.7502 17.5001 73.5835 21.7499 74.0835 26.417H70.7505C69.3339 26.417 68.1673 27.5836 68.1673 29.0002C67.9999 30.4167 69.1665 31.5833 70.5831 31.5833H70.5832Z" fill="#FE7062"/>
<path d="M60.3333 26.4164H52.7499V17.0832C52.7499 15.6666 51.5832 14.5 50.1667 14.5C48.7501 14.5 47.5835 15.6666 47.5835 17.0832V28.9996C47.5835 30.4161 48.7501 31.5827 50.1667 31.5827H60.3333C61.7499 31.5827 62.9165 30.4161 62.9165 28.9996C62.9165 27.583 61.7499 26.4164 60.3333 26.4164Z" fill="#FE7062"/>
<path d="M13.6665 31.5833C15.0831 31.5833 16.2497 30.4167 16.2497 29.0001C16.2497 27.5836 15.0831 26.4169 13.6665 26.4169H2.58318C1.16659 26.4169 0 27.5836 0 29.0001C0 30.4167 1.16664 31.5833 2.58318 31.5833H13.6665Z" fill="#FE7062"/>
<path d="M15.9165 15.4999H4.74993C3.33334 15.4999 2.16675 16.6666 2.16675 18.0831C2.16675 19.4997 3.33339 20.6663 4.74993 20.6663H15.9165C17.333 20.6663 18.4996 19.4997 18.4996 18.0831C18.4165 16.6665 17.333 15.4999 15.9165 15.4999Z" fill="#FE7062"/>
<path d="M15.9165 37.4166H4.74993C3.33334 37.4166 2.16675 38.5833 2.16675 39.9998C2.16675 41.4164 3.33339 42.583 4.74993 42.583H15.9165C17.333 42.583 18.4996 41.4164 18.4996 39.9998C18.4996 38.5833 17.333 37.4166 15.9165 37.4166Z" fill="#FE7062"/>
</svg>
