<svg width="56" height="40" viewBox="0 0 56 40" fill="none" xmlns="http://www.w3.org/2000/svg">
<path d="M5.92607 25.06C2.49076 25.8123 0 28.9135 0 32.4391C0 36.608 3.39553 40 7.56946 40H48.4305C52.6041 40 56 36.6108 56 32.4391C56 28.8488 53.4422 25.735 49.9148 25.0352C49.6215 24.9781 49.4053 24.7323 49.3804 24.4368C49.0001 19.6993 44.9657 15.9898 40.1952 15.9898C38.8603 15.9898 37.5653 16.2729 36.3448 16.8315C36.3398 16.834 36.3348 16.8365 36.3299 16.839C35.4076 17.2636 34.5675 17.8371 33.8292 18.5423C33.5632 18.798 33.1406 18.7856 32.887 18.5224C32.7652 18.3933 32.7031 18.227 32.7031 18.0631C32.7031 17.8868 32.7727 17.7105 32.9094 17.5814C33.5731 16.9482 34.3114 16.4044 35.1118 15.9674C32.2358 11.5875 27.2967 8.89599 22.0563 8.89599C13.734 8.89599 6.90083 15.4659 6.49547 23.6873H6.56259C8.42444 23.6873 10.4776 24.5613 11.3427 26.4508C11.4943 26.786 11.3477 27.1808 11.0146 27.3323C10.679 27.4837 10.2838 27.3372 10.1322 27.0045C9.41377 25.4378 7.4399 24.834 5.92607 25.06ZM31.6711 10.5795C33.5031 11.8459 35.0965 13.4722 36.3245 15.3915C38.5567 14.5125 41.0773 14.443 43.2773 15.1233C43.4936 14.4827 43.603 13.8173 43.603 13.1345C43.603 9.69812 40.804 6.90227 37.3637 6.90227C34.8829 6.89979 32.6779 8.33492 31.6711 10.5795ZM51.7164 36.7799C51.5349 36.7799 51.3534 36.7054 51.2242 36.5614C50.9756 36.2882 50.998 35.8687 51.2689 35.6203C52.1688 34.8059 52.6758 33.6463 52.661 32.4372C52.651 31.5557 52.3676 30.7115 51.8431 29.9964C51.6244 29.6985 51.6915 29.2838 51.9873 29.0654C52.2831 28.8469 52.7007 28.9114 52.9194 29.2094C53.6104 30.1504 53.9833 31.2628 53.9957 32.4223C54.0131 34.0089 53.347 35.5359 52.1637 36.6036C52.037 36.7228 51.8755 36.7799 51.7164 36.7799ZM11.3924 18.1703C11.2681 18.1703 11.1413 18.1356 11.027 18.0611C10.7187 17.8599 10.6342 17.4478 10.8356 17.1399C12.3121 14.8878 14.4027 13.1473 16.8785 12.1045C17.214 11.9629 17.6093 12.1193 17.751 12.4595C17.8927 12.7972 17.7336 13.1895 17.3955 13.331C15.1658 14.2696 13.2816 15.8363 11.9492 17.8674C11.8224 18.0635 11.6086 18.1703 11.3924 18.1703ZM49.8448 13.7978H47.7717C47.4038 13.7978 47.1055 13.4999 47.1055 13.1324C47.1055 12.7649 47.4038 12.4669 47.7717 12.4669H49.8448C50.2127 12.4669 50.511 12.7649 50.511 13.1324C50.5135 13.4999 50.2152 13.7978 49.8448 13.7978ZM20.3313 12.5142C20.0031 12.5142 19.7173 12.2708 19.6725 11.9381C19.6228 11.5731 19.8788 11.2379 20.2442 11.1883C20.5972 11.1411 20.9552 11.1063 21.3181 11.0865C21.6785 11.0442 21.9992 11.3472 22.0191 11.7146C22.039 12.0821 21.7581 12.395 21.3902 12.4149C21.0646 12.4322 20.7414 12.4645 20.4233 12.5067C20.3909 12.5117 20.3611 12.5142 20.3313 12.5142ZM44.7241 6.44581C44.5526 6.44581 44.3835 6.38125 44.2518 6.24965C43.9908 5.98894 43.9908 5.56933 44.2518 5.30859L45.7184 3.84364C45.9794 3.58293 46.3995 3.58293 46.6605 3.84364C46.9215 4.10435 46.9215 4.52396 46.6605 4.7847L45.1939 6.24965C45.0671 6.38125 44.8956 6.44581 44.7241 6.44581ZM30.0058 6.44581C29.8343 6.44581 29.6652 6.38125 29.5335 6.24965L28.0669 4.7847C27.8059 4.52399 27.8059 4.10438 28.0669 3.84364C28.3279 3.58293 28.748 3.58293 29.009 3.84364L30.4756 5.30859C30.7366 5.56931 30.7366 5.98892 30.4756 6.24965C30.3464 6.38125 30.1748 6.44581 30.0058 6.44581ZM37.3659 3.40168C36.998 3.40168 36.6997 3.10372 36.6997 2.73623V0.665448C36.6997 0.297974 36.998 0 37.3659 0C37.7338 0 38.0321 0.297955 38.0321 0.665448V2.73623C38.0321 3.1037 37.7338 3.40168 37.3659 3.40168Z" fill="#FE7062"/>
</svg>
